#!OML:ASF H:\Terrain\Patient Classification 1\PLAYGROUND\JustinFriday\JustinFriday.ASF
:FULLY-SPECIFIED
:DEGREES
2552
root -2.21005 17.7456 11.4161 513.761 -80.4236 -149.971
lowerback 15.4294 1.78268 2.43908
upperback 2.95373 2.71449 2.57772
thorax -5.51358 1.22325 0.814769
lowerneck -20.0166 -1.84838 -13.0599
upperneck 18.2429 -2.02218 14.6725
head 9.31855 -0.298329 7.11124
rclavicle -3.47873e-014 -7.95139e-016
rhumerus 81.8083 -28.434 -60.4228
rradius 92.6052
rwrist 5.44343
rhand -24.8486 -13.8526
rfingers 7.12502
rthumb 1.65781 -403.826
lclavicle -3.47873e-014 -7.95139e-016
lhumerus 78.6723 38.7189 53.5003
lradius 90.4999
lwrist -8.04346
lhand -15.3757 -11.6973
lfingers 7.12502
lthumb 10.8024 18.0049
rfemur 3.67331 2.92342 24.8913
rtibia 34.1772
rfoot -8.42778 7.24681
rtoes 2.7177
lfemur -20.2956 3.70302 -17.925
ltibia 32.881
lfoot -12.8573 -4.45709
ltoes 17.1311
2553
root -2.27114 17.7475 11.432 514.45 -80.4567 -150.424
lowerback 15.596 1.8247 2.36842
upperback 3.07335 2.75074 2.53307
thorax -5.47818 1.23951 0.797413
lowerneck -18.2366 -1.9321 -11.7431
upperneck 15.7951 -2.21836 13.4668
head 8.17582 -0.463123 6.27721
rclavicle -4.2043e-014 -5.56597e-015
rhumerus 83.19 -28.7376 -61.6437
rradius 93.0264
rwrist 5.474
rhand -24.6939 -13.7797
rfingers 7.12502
rthumb 1.80724 -403.752
lclavicle -4.2043e-014 -5.56597e-015
lhumerus 81.1085 38.7455 55.788
lradius 90.5037
lwrist -8.51237
lhand -14.5772 -12.1263
lfingers 7.12502
lthumb 11.5725 17.5342
rfemur 3.4707 2.76887 24.7209
rtibia 34.4019
rfoot -8.26943 7.02502
rtoes 0.648944
lfemur -20.32 3.75175 -18.1062
ltibia 32.8297
lfoot -12.8993 -4.59979
ltoes 17.7005
2554
root -2.32981 17.7448 11.4505 513.032 -80.2905 -148.61
lowerback 15.6712 1.78137 2.83511
upperback 3.14733 2.7637 2.58504
thorax -5.41991 1.2358 0.586332
lowerneck -16.5199 -1.87632 -10.5619
upperneck 13.5206 -2.21917 12.4689
head 7.10884 -0.535891 5.63039
rclavicle -6.75868e-015 5.56597e-015
rhumerus 84.4997 -28.9208 -62.848
rradius 93.5213
rwrist 5.87473
rhand -25.4585 -15.0728
rfingers 7.12502
rthumb 1.06877 -405.05
lclavicle -6.75868e-015 5.56597e-015
lhumerus 82.7301 39.1275 57.1325
lradius 90.8293
lwrist -8.58042
lhand -14.9964 -11.7528
lfingers 7.12502
lthumb 11.1682 17.93
rfemur 3.10026 2.6557 25.0281
rtibia 34.6313
rfoot -8.13305 6.69072
rtoes -0.329461
lfemur -20.4894 4.15261 -17.8682
ltibia 32.7237
lfoot -12.9285 -5.00849
ltoes 17.4918
2555
root -2.39049 17.7469 11.4635 513.358 -80.2947 -148.567
lowerback 15.7636 1.71087 2.9793
upperback 3.16474 2.6917 2.51666
thorax -5.44166 1.1969 0.444934
lowerneck -14.3037 -1.66398 -9.19877
upperneck 10.809 -2.02339 11.3889
head 5.82149 -0.535508 4.9755
rclavicle 1.33186e-014 1.59028e-014
rhumerus 85.1748 -29.7832 -62.984
rradius 94.918
rwrist 5.29425
rhand -26.7501 -18.4036
rfingers 7.12502
rthumb -0.178697 -408.383
lclavicle 1.33186e-014 1.59028e-014
lhumerus 83.2884 39.9863 57.5707
lradius 91.9394
lwrist -7.90541
lhand -15.1763 -11.0367
lfingers 7.12502
lthumb 10.9947 18.6554
rfemur 2.73281 2.6791 24.9624
rtibia 34.8086
rfoot -7.86038 6.57754
rtoes 1.36486
lfemur -20.6335 4.64515 -18.0091
ltibia 32.6249
lfoot -13.0184 -5.52326
ltoes 17.3768
2556
root -2.45051 17.7616 11.4719 515.751 -80.5709 -150.711
lowerback 15.9109 1.70018 2.48
upperback 3.23913 2.59227 2.42293
thorax -5.46228 1.15504 0.643845
lowerneck -13.579 -1.77385 -7.45582
upperneck 9.76088 -2.24222 9.63314
head 5.3565 -0.718644 4.0719
rclavicle 2.52457e-014 -1.70955e-014
rhumerus 87.2673 -29.2759 -64.9716
rradius 94.483
rwrist 5.81212
rhand -26.2384 -16.8744
rfingers 7.12502
rthumb 0.315531 -406.854
lclavicle 2.52457e-014 -1.70955e-014
lhumerus 84.2489 40.7115 58.4915
lradius 92.8084
lwrist -7.29253
lhand -14.5263 -11.2074
lfingers 7.12502
lthumb 11.6216 18.4504
rfemur 2.47694 2.59057 24.401
rtibia 34.9476
rfoot -7.57094 6.52069
rtoes 2.45628
lfemur -20.7027 4.70127 -18.5795
ltibia 32.5347
lfoot -13.0394 -5.60856
ltoes 17.8852
2557
root -2.50662 17.7761 11.4795 517.111 -80.4089 -151.609
lowerback 15.84 1.82366 2.22837
upperback 3.30533 2.70895 2.48473
thorax -5.36828 1.21614 0.830446
lowerneck -12.1186 -1.68901 -6.96242
upperneck 7.68197 -2.12539 9.30969
head 4.45449 -0.717114 3.87311
rclavicle 8.64713e-015 1.63003e-014
rhumerus 89.0119 -29.3793 -66.1079
rradius 94.4872
rwrist 5.75865
rhand -24.7868 -14.5713
rfingers 7.12502
rthumb 1.71751 -404.544
lclavicle 8.64713e-015 1.63003e-014
lhumerus 86.2234 40.915 60.3007
lradius 92.9764
lwrist -7.35098
lhand -13.755 -11.9402
lfingers 7.12502
lthumb 12.3654 17.6741
rfemur 1.99253 2.63512 24.221
rtibia 35.0727
rfoot -7.46875 6.41118
rtoes 1.31644
lfemur -20.9773 4.81922 -18.7344
ltibia 32.4349
lfoot -13.1003 -5.4324
ltoes 18.2018
2558
root -2.56329 17.7782 11.4964 516.573 -80.293 -150.562
lowerback 15.7059 1.86365 2.46317
upperback 3.37531 2.79294 2.61067
thorax -5.216 1.25372 0.819596
lowerneck -11.6273 -1.56351 -6.16841
upperneck 6.87005 -1.95457 8.32477
head 4.09238 -0.681812 3.43864
rclavicle -3.37934e-015 1.27222e-014
rhumerus 89.6474 -30.3995 -66.0965
rradius 96.0989
rwrist 4.83223
rhand -23.9446 -14.7384
rfingers 7.12502
rthumb 2.53087 -404.703
lclavicle -3.37934e-015 1.27222e-014
lhumerus 88.7043 40.8746 62.5969
lradius 92.9863
lwrist -7.66775
lhand -12.8284 -12.2306
lfingers 7.12502
lthumb 13.2586 17.3277
rfemur 1.51906 2.31771 24.2871
rtibia 35.1338
rfoot -7.42383 6.42862
rtoes 0.426289
lfemur -21.3186 5.03779 -18.6509
ltibia 32.3866
lfoot -13.2706 -5.66129
ltoes 17.8652
2559
root -2.61867 17.7839 11.5122 517.121 -80.2656 -150.739
lowerback 15.7798 1.90178 2.36264
upperback 3.43417 2.82777 2.71678
thorax -5.20416 1.27018 0.980372
lowerneck -11.3669 -1.48991 -5.39507
upperneck 6.36895 -1.85607 7.28385
head 3.87112 -0.675787 2.99157
rclavicle -1.90833e-014 -1.31198e-014
rhumerus 91.4646 -30.1279 -67.3673
rradius 95.9065
rwrist 5.06977
rhand -23.531 -13.5809
rfingers 7.12502
rthumb 2.93035 -403.541
lclavicle -1.90833e-014 -1.31198e-014
lhumerus 90.7179 41.2477 64.4319
lradius 93.1639
lwrist -7.61325
lhand -11.9462 -12.206
lfingers 7.12502
lthumb 14.1088 17.2951
rfemur 1.2614 2.1473 24.1636
rtibia 35.1017
rfoot -7.18045 6.30222
rtoes 0.892003
lfemur -21.563 5.49339 -18.811
ltibia 32.4174
lfoot -13.4096 -6.14133
ltoes 17.6533
